<svg width="240" height="48" viewBox="0 0 240 48" fill="none" xmlns="http://www.w3.org/2000/svg">
<path d="M9.8373 16.7331C9.26604 20.9997 8.08614 29.7883 7.93657 30.8098C7.74961 32.0866 5.56845 33.6749 3.51193 33.1767C1.4554 32.6784 0.551779 30.6852 0.707576 29.2215C0.832214 28.0505 3.12763 10.982 4.25976 2.59411C4.50903 1.91934 5.35034 0.507523 6.72135 0.258378C8.43512 -0.0530528 10.2424 0.227235 10.959 1.69096C11.5324 2.86194 21.0028 22.7748 25.6663 32.5849C27.7436 22.8787 31.9356 3.29172 32.0852 2.59411C32.2721 1.7221 33.7366 0.258377 35.7308 0.28952C37.725 0.320664 38.5663 1.2861 38.7844 1.75325C39.0026 2.22039 49.9084 27.6643 50.1265 28.256C50.3446 28.8478 50.7497 31.0589 48.662 32.5849C45.5149 34.1739 43.6765 32.1178 43.3337 31.2458C43.0595 30.5482 38.9195 20.844 36.8837 16.0791C34.8583 25.557 30.7578 44.737 30.5583 45.6339C30.3091 46.755 29.2185 47.7205 27.3178 47.8451C25.417 47.9696 24.3888 46.9419 23.9837 46.2879C23.6596 45.7647 14.4177 26.3667 9.8373 16.7331Z" fill="#F8F8F8"/>
<path d="M64.3096 34.6961V13.3343H67.2003L75.7821 27.1906H74.126L82.6777 13.3343H85.5684V34.6961H81.5033V20.4144L82.2863 20.6575L76.3241 30.3204H73.5539L67.5917 20.6575L68.4048 20.4144V34.6961H64.3096Z" fill="white"/>
<path d="M89.8927 34.6961V13.3343H93.9879V34.6961H89.8927ZM92.9039 34.6961V31.0497H104.617V34.6961H92.9039ZM92.9039 25.5497V22.0249H103.563V25.5497H92.9039ZM92.9039 16.9807V13.3343H104.467V16.9807H92.9039Z" fill="white"/>
<path d="M113.62 35C111.914 35 110.449 34.7063 109.224 34.1188C108.02 33.5313 106.925 32.6501 105.942 31.4751L108.652 28.7403C109.274 29.5709 109.997 30.2192 110.82 30.6851C111.643 31.1308 112.647 31.3536 113.831 31.3536C114.895 31.3536 115.738 31.1409 116.36 30.7155C117.003 30.2901 117.324 29.7026 117.324 28.953C117.324 28.3048 117.143 27.7781 116.782 27.3729C116.421 26.9678 115.939 26.6234 115.337 26.3398C114.754 26.0562 114.102 25.8029 113.379 25.5801C112.677 25.337 111.964 25.0635 111.241 24.7597C110.539 24.4558 109.886 24.081 109.284 23.6354C108.702 23.1694 108.23 22.582 107.869 21.8729C107.508 21.1436 107.327 20.232 107.327 19.1381C107.327 17.8416 107.638 16.7376 108.26 15.826C108.883 14.9144 109.736 14.2155 110.82 13.7293C111.904 13.2431 113.128 13 114.494 13C115.939 13 117.244 13.2735 118.408 13.8204C119.572 14.3674 120.526 15.0764 121.269 15.9475L118.559 18.6823C117.936 17.9936 117.294 17.4871 116.631 17.163C115.989 16.8389 115.256 16.6768 114.433 16.6768C113.49 16.6768 112.747 16.8591 112.205 17.2238C111.663 17.5884 111.392 18.1151 111.392 18.8039C111.392 19.3913 111.573 19.8674 111.934 20.232C112.295 20.5967 112.767 20.9107 113.349 21.174C113.952 21.4374 114.604 21.6906 115.307 21.9337C116.029 22.1768 116.742 22.4503 117.444 22.7541C118.167 23.058 118.82 23.453 119.402 23.9392C120.004 24.4254 120.486 25.0534 120.847 25.8232C121.208 26.5727 121.389 27.5046 121.389 28.6188C121.389 30.6041 120.697 32.1639 119.311 33.2983C117.926 34.4328 116.029 35 113.62 35Z" fill="white"/>
<path d="M130.235 35C128.528 35 127.063 34.7063 125.838 34.1188C124.634 33.5313 123.54 32.6501 122.556 31.4751L125.266 28.7403C125.889 29.5709 126.611 30.2192 127.434 30.6851C128.257 31.1308 129.261 31.3536 130.445 31.3536C131.509 31.3536 132.353 31.1409 132.975 30.7155C133.617 30.2901 133.938 29.7026 133.938 28.953C133.938 28.3048 133.758 27.7781 133.396 27.3729C133.035 26.9678 132.553 26.6234 131.951 26.3398C131.369 26.0562 130.716 25.8029 129.994 25.5801C129.291 25.337 128.579 25.0635 127.856 24.7597C127.153 24.4558 126.501 24.081 125.899 23.6354C125.316 23.1694 124.845 22.582 124.483 21.8729C124.122 21.1436 123.941 20.232 123.941 19.1381C123.941 17.8416 124.252 16.7376 124.875 15.826C125.497 14.9144 126.35 14.2155 127.434 13.7293C128.518 13.2431 129.743 13 131.108 13C132.553 13 133.858 13.2735 135.022 13.8204C136.187 14.3674 137.14 15.0764 137.883 15.9475L135.173 18.6823C134.551 17.9936 133.908 17.4871 133.246 17.163C132.603 16.8389 131.871 16.6768 131.048 16.6768C130.104 16.6768 129.361 16.8591 128.819 17.2238C128.277 17.5884 128.006 18.1151 128.006 18.8039C128.006 19.3913 128.187 19.8674 128.548 20.232C128.91 20.5967 129.381 20.9107 129.964 21.174C130.566 21.4374 131.218 21.6906 131.921 21.9337C132.644 22.1768 133.356 22.4503 134.059 22.7541C134.782 23.058 135.434 23.453 136.016 23.9392C136.618 24.4254 137.1 25.0534 137.461 25.8232C137.823 26.5727 138.003 27.5046 138.003 28.6188C138.003 30.6041 137.311 32.1639 135.926 33.2983C134.541 34.4328 132.644 35 130.235 35Z" fill="white"/>
<path d="M141.236 34.6961V13.3343H145.331V34.6961H141.236ZM144.247 34.6961V31.0497H155.96V34.6961H144.247ZM144.247 25.5497V22.0249H154.906V25.5497H144.247ZM144.247 16.9807V13.3343H155.81V16.9807H144.247Z" fill="white"/>
<path d="M159.35 34.6961V13.3343H162.21L163.445 17.4669V34.6961H159.35ZM173.984 34.6961L161.427 18.2873L162.21 13.3343L174.767 29.7431L173.984 34.6961ZM173.984 34.6961L172.81 30.6851V13.3343H176.935V34.6961H173.984Z" fill="white"/>
<path d="M191.014 35C189.508 35 188.093 34.7265 186.768 34.1796C185.463 33.6123 184.309 32.8223 183.305 31.8094C182.322 30.7965 181.549 29.6317 180.987 28.3149C180.445 26.9779 180.174 25.5396 180.174 24C180.174 22.4401 180.455 21.0018 181.017 19.6851C181.579 18.3481 182.362 17.1832 183.366 16.1906C184.369 15.1777 185.544 14.3978 186.889 13.8508C188.234 13.2836 189.689 13 191.255 13C193.001 13 194.607 13.3343 196.073 14.0028C197.538 14.651 198.753 15.5727 199.716 16.768L196.946 19.5635C196.283 18.6924 195.46 18.0239 194.477 17.558C193.493 17.0921 192.409 16.8591 191.225 16.8591C189.88 16.8591 188.685 17.163 187.641 17.7707C186.618 18.3582 185.815 19.1888 185.232 20.2624C184.65 21.3158 184.359 22.5516 184.359 23.9696C184.359 25.3877 184.64 26.6436 185.202 27.7376C185.785 28.8112 186.567 29.6519 187.551 30.2597C188.555 30.8674 189.699 31.1713 190.984 31.1713C192.309 31.1713 193.443 30.9282 194.386 30.442C195.33 29.9355 196.053 29.2063 196.554 28.2541C197.056 27.2818 197.307 26.0967 197.307 24.6989L199.987 26.5525L190.743 26.4613V22.8757H201.523V23.453C201.523 26.0055 201.071 28.1427 200.168 29.8646C199.265 31.5663 198.02 32.8527 196.434 33.7238C194.868 34.5746 193.062 35 191.014 35Z" fill="white"/>
<path d="M204.664 34.6961V13.3343H208.759V34.6961H204.664ZM207.675 34.6961V31.0497H219.389V34.6961H207.675ZM207.675 25.5497V22.0249H218.335V25.5497H207.675ZM207.675 16.9807V13.3343H219.238V16.9807H207.675Z" fill="white"/>
<path d="M225.789 25.7624V22.5414H230.698C231.701 22.5414 232.474 22.2882 233.016 21.7818C233.578 21.2551 233.859 20.5359 233.859 19.6243C233.859 18.7937 233.578 18.105 233.016 17.558C232.474 16.9908 231.701 16.7072 230.698 16.7072H225.789V13.3343H231.059C232.424 13.3343 233.618 13.6077 234.642 14.1547C235.686 14.6814 236.489 15.4107 237.051 16.3425C237.633 17.2744 237.924 18.3481 237.924 19.5635C237.924 20.8195 237.633 21.9134 237.051 22.8453C236.489 23.7569 235.686 24.4761 234.642 25.0028C233.598 25.5092 232.384 25.7624 230.999 25.7624H225.789ZM222.778 34.6961V13.3343H226.873V34.6961H222.778ZM234.341 34.6961L227.355 25.4586L231.119 24.2735L239.31 34.6961H234.341Z" fill="white"/>
</svg>
