<svg width="149" height="19" viewBox="0 0 149 19" fill="none" xmlns="http://www.w3.org/2000/svg">
<path d="M0.62793 15V0.48H2.65193V15H0.62793ZM1.68393 15V13.262H10.7039V15H1.68393ZM1.68393 8.422V6.794H9.66993V8.422H1.68393ZM1.68393 2.218V0.48H10.6819V2.218H1.68393Z" fill="#2D8092"/>
<path d="M16.8007 15L11.7627 0.48H13.9847L18.1427 13.218H18.2967L22.4767 0.48H24.6547L19.5947 15H16.8007Z" fill="#2D8092"/>
<path d="M23.0746 15L28.2006 0.48H31.0606L36.1866 15H34.0086L29.7406 2.196H29.5206L25.2746 15H23.0746ZM25.4946 11.766V10.204H34.0086V11.766H25.4946Z" fill="#2D8092"/>
<path d="M38 18.048L38.022 8.764L38 3.286H39.826L39.672 6.498H39.958C40.134 5.73533 40.3907 5.09733 40.728 4.584C41.0653 4.07067 41.4833 3.682 41.982 3.418C42.4953 3.13933 43.0967 3 43.786 3C44.754 3 45.5827 3.24933 46.272 3.748C46.9613 4.232 47.4893 4.92133 47.856 5.816C48.2227 6.696 48.406 7.74467 48.406 8.962C48.406 10.1793 48.2227 11.2353 47.856 12.13C47.4893 13.0247 46.9687 13.7213 46.294 14.22C45.634 14.704 44.8347 14.946 43.896 14.946C43.1187 14.946 42.4587 14.7773 41.916 14.44C41.388 14.1027 40.9627 13.6407 40.64 13.054C40.3173 12.4673 40.0827 11.8147 39.936 11.096H39.606C39.694 11.5947 39.7673 12.0787 39.826 12.548C39.8847 13.0027 39.9287 13.4427 39.958 13.868C40.002 14.2933 40.024 14.6967 40.024 15.078V18.048H38ZM43.368 13.186C43.9987 13.186 44.534 13.01 44.974 12.658C45.414 12.2913 45.7513 11.7927 45.986 11.162C46.2207 10.5167 46.338 9.776 46.338 8.94C46.338 8.08933 46.2207 7.356 45.986 6.74C45.7513 6.124 45.414 5.64733 44.974 5.31C44.534 4.958 43.9987 4.782 43.368 4.782C42.8253 4.782 42.3487 4.90667 41.938 5.156C41.5273 5.39067 41.1753 5.706 40.882 6.102C40.6033 6.498 40.3907 6.93067 40.244 7.4C40.0973 7.85467 40.024 8.30933 40.024 8.764V9.006C40.024 9.29933 40.0607 9.62933 40.134 9.996C40.222 10.3627 40.3467 10.7367 40.508 11.118C40.684 11.4847 40.904 11.8293 41.168 12.152C41.432 12.46 41.7473 12.7093 42.114 12.9C42.4807 13.0907 42.8987 13.186 43.368 13.186Z" fill="#FCFCFC"/>
<path d="M50.4511 14.66V8.764L50.4291 3.286H52.2551L52.0351 7.708H52.3431C52.4605 6.696 52.6585 5.84533 52.9371 5.156C53.2305 4.452 53.6045 3.924 54.0591 3.572C54.5285 3.20533 55.0785 3.022 55.7091 3.022C55.8851 3.022 56.0758 3.03667 56.2811 3.066C56.4865 3.09533 56.7065 3.154 56.9411 3.242L56.8311 5.354C56.6111 5.266 56.3838 5.2 56.1491 5.156C55.9291 5.112 55.7238 5.09 55.5331 5.09C54.9465 5.09 54.4405 5.288 54.0151 5.684C53.6045 6.08 53.2671 6.63 53.0031 7.334C52.7538 8.038 52.5705 8.852 52.4531 9.776V14.66H50.4511Z" fill="#FCFCFC"/>
<path d="M62.9968 14.946C61.9261 14.946 60.9728 14.7187 60.1368 14.264C59.3155 13.7947 58.6701 13.1127 58.2008 12.218C57.7315 11.3233 57.4968 10.2307 57.4968 8.94C57.4968 7.62 57.7388 6.52 58.2228 5.64C58.7215 4.76 59.3815 4.1 60.2028 3.66C61.0241 3.22 61.9408 3 62.9528 3C63.9941 3 64.9255 3.22733 65.7468 3.682C66.5828 4.13667 67.2355 4.81133 67.7048 5.706C68.1888 6.60067 68.4308 7.708 68.4308 9.028C68.4308 10.3333 68.1888 11.426 67.7048 12.306C67.2355 13.186 66.5901 13.846 65.7688 14.286C64.9475 14.726 64.0235 14.946 62.9968 14.946ZM63.0628 13.296C63.4881 13.296 63.8988 13.2227 64.2948 13.076C64.6908 12.9147 65.0501 12.6727 65.3728 12.35C65.6955 12.0127 65.9521 11.58 66.1428 11.052C66.3335 10.5093 66.4288 9.85667 66.4288 9.094C66.4288 8.31667 66.3261 7.64933 66.1208 7.092C65.9301 6.53467 65.6661 6.08 65.3288 5.728C65.0061 5.376 64.6321 5.11933 64.2068 4.958C63.7815 4.782 63.3488 4.694 62.9088 4.694C62.4835 4.694 62.0655 4.77467 61.6548 4.936C61.2588 5.08267 60.8995 5.32467 60.5768 5.662C60.2541 5.99933 59.9975 6.432 59.8068 6.96C59.6161 7.488 59.5208 8.13333 59.5208 8.896C59.5208 9.67333 59.6161 10.3407 59.8068 10.898C59.9975 11.4553 60.2541 11.91 60.5768 12.262C60.9141 12.614 61.2955 12.878 61.7208 13.054C62.1461 13.2153 62.5935 13.296 63.0628 13.296Z" fill="#FCFCFC"/>
<path d="M74.7015 18.334C73.4695 18.334 72.4722 18.2387 71.7095 18.048C70.9615 17.8573 70.4188 17.5787 70.0815 17.212C69.7442 16.8453 69.5755 16.4053 69.5755 15.892C69.5755 15.232 69.8322 14.6893 70.3455 14.264C70.8588 13.8387 71.6582 13.5453 72.7435 13.384V13.054C71.9368 13.054 71.3282 12.9587 70.9175 12.768C70.5215 12.5773 70.3235 12.284 70.3235 11.888C70.3235 11.5067 70.5215 11.1767 70.9175 10.898C71.3135 10.6193 71.9662 10.3773 72.8755 10.172V9.82C71.9662 9.76133 71.2768 9.468 70.8075 8.94C70.3382 8.412 70.1035 7.73733 70.1035 6.916C70.1035 6.168 70.3015 5.52267 70.6975 4.98C71.1082 4.43733 71.6875 4.012 72.4355 3.704C73.1835 3.396 74.0708 3.242 75.0975 3.242H80.5755V4.958L76.9675 4.452V4.782C77.8622 4.958 78.5295 5.266 78.9695 5.706C79.4095 6.13133 79.6295 6.68133 79.6295 7.356C79.6295 7.98667 79.4462 8.53667 79.0795 9.006C78.7128 9.47533 78.1775 9.842 77.4735 10.106C76.7842 10.37 75.9262 10.502 74.8995 10.502C74.6795 10.502 74.4595 10.4947 74.2395 10.48C74.0195 10.4653 73.7408 10.4287 73.4035 10.37C72.9342 10.6047 72.5822 10.8247 72.3475 11.03C72.1128 11.2207 71.9955 11.3893 71.9955 11.536C71.9955 11.6973 72.0908 11.8147 72.2815 11.888C72.4868 11.9613 72.7288 12.0127 73.0075 12.042C73.3008 12.0713 73.5868 12.086 73.8655 12.086H76.7475C77.0115 12.086 77.3635 12.1153 77.8035 12.174C78.2582 12.218 78.7128 12.328 79.1675 12.504C79.6222 12.68 80.0035 12.966 80.3115 13.362C80.6195 13.7433 80.7735 14.286 80.7735 14.99C80.7735 15.7673 80.5388 16.398 80.0695 16.882C79.6148 17.3807 78.9402 17.7473 78.0455 17.982C77.1508 18.2167 76.0362 18.334 74.7015 18.334ZM74.6795 16.618C75.7062 16.618 76.5275 16.5593 77.1435 16.442C77.7742 16.3247 78.2288 16.134 78.5075 15.87C78.7862 15.6207 78.9255 15.3053 78.9255 14.924C78.9255 14.5573 78.8302 14.2787 78.6395 14.088C78.4635 13.8827 78.2288 13.7433 77.9355 13.67C77.6568 13.582 77.3635 13.5307 77.0555 13.516C76.7622 13.4867 76.4982 13.472 76.2635 13.472H73.6015C72.7802 13.692 72.2155 13.956 71.9075 14.264C71.5995 14.5573 71.4455 14.8873 71.4455 15.254C71.4455 15.65 71.5848 15.9433 71.8635 16.134C72.1568 16.3247 72.5455 16.4493 73.0295 16.508C73.5282 16.5813 74.0782 16.618 74.6795 16.618ZM74.9655 9.204C75.8455 9.204 76.5202 9.01333 76.9895 8.632C77.4588 8.236 77.6935 7.708 77.6935 7.048C77.6935 6.35867 77.4515 5.80133 76.9675 5.376C76.4835 4.936 75.7942 4.716 74.8995 4.716C74.0195 4.716 73.3302 4.92867 72.8315 5.354C72.3328 5.77933 72.0835 6.322 72.0835 6.982C72.0835 7.422 72.1935 7.81067 72.4135 8.148C72.6482 8.47067 72.9782 8.72733 73.4035 8.918C73.8435 9.10867 74.3642 9.204 74.9655 9.204Z" fill="#FCFCFC"/>
<path d="M82.4749 14.66V8.764L82.4529 3.286H84.2789L84.0589 7.708H84.3669C84.4842 6.696 84.6822 5.84533 84.9609 5.156C85.2542 4.452 85.6282 3.924 86.0829 3.572C86.5522 3.20533 87.1022 3.022 87.7329 3.022C87.9089 3.022 88.0996 3.03667 88.3049 3.066C88.5102 3.09533 88.7302 3.154 88.9649 3.242L88.8549 5.354C88.6349 5.266 88.4076 5.2 88.1729 5.156C87.9529 5.112 87.7476 5.09 87.5569 5.09C86.9702 5.09 86.4642 5.288 86.0389 5.684C85.6282 6.08 85.2909 6.63 85.0269 7.334C84.7776 8.038 84.5942 8.852 84.4769 9.776V14.66H82.4749Z" fill="#FCFCFC"/>
<path d="M92.776 14.946C92.16 14.946 91.6027 14.836 91.104 14.616C90.6054 14.3813 90.202 14.0293 89.894 13.56C89.6007 13.0907 89.454 12.504 89.454 11.8C89.454 11.0667 89.6007 10.48 89.894 10.04C90.202 9.58533 90.6054 9.23333 91.104 8.984C91.6027 8.72 92.1454 8.522 92.732 8.39C93.3334 8.258 93.942 8.148 94.558 8.06C95.218 7.95733 95.724 7.86933 96.076 7.796C96.4427 7.708 96.692 7.59067 96.824 7.444C96.9707 7.29733 97.044 7.07733 97.044 6.784C97.044 6.37333 96.9487 6.014 96.758 5.706C96.582 5.38333 96.318 5.134 95.966 4.958C95.614 4.782 95.1814 4.694 94.668 4.694C94.228 4.694 93.788 4.77467 93.348 4.936C92.908 5.08267 92.534 5.332 92.226 5.684C91.918 6.036 91.72 6.52 91.632 7.136L89.806 6.652C89.894 6.036 90.0774 5.50067 90.356 5.046C90.6347 4.59133 90.9867 4.21733 91.412 3.924C91.852 3.616 92.3434 3.38867 92.886 3.242C93.4287 3.08067 94.0154 3 94.646 3C95.482 3 96.1787 3.11733 96.736 3.352C97.308 3.58667 97.7554 3.91667 98.078 4.342C98.4154 4.76733 98.6574 5.25867 98.804 5.816C98.9654 6.35867 99.046 6.938 99.046 7.554V9.908C99.046 10.4067 99.0534 10.9273 99.068 11.47C99.0827 12.0127 99.1047 12.5553 99.134 13.098C99.1634 13.6407 99.1927 14.1613 99.222 14.66H97.352C97.352 14.1173 97.3447 13.582 97.33 13.054C97.33 12.526 97.33 11.9907 97.33 11.448H97.066C96.89 12.0787 96.6114 12.658 96.23 13.186C95.8634 13.714 95.3867 14.1393 94.8 14.462C94.228 14.7847 93.5534 14.946 92.776 14.946ZM93.348 13.318C93.7147 13.318 94.0814 13.252 94.448 13.12C94.8147 12.9733 95.1667 12.7607 95.504 12.482C95.856 12.2033 96.164 11.8587 96.428 11.448C96.692 11.0227 96.9047 10.524 97.066 9.952V8.368H97.66C97.4547 8.60267 97.1614 8.77867 96.78 8.896C96.3987 9.01333 95.9734 9.10867 95.504 9.182C95.0347 9.25533 94.558 9.336 94.074 9.424C93.6047 9.49733 93.172 9.61467 92.776 9.776C92.38 9.92267 92.0574 10.1427 91.808 10.436C91.5734 10.7147 91.456 11.096 91.456 11.58C91.456 12.1227 91.6247 12.548 91.962 12.856C92.314 13.164 92.776 13.318 93.348 13.318Z" fill="#FCFCFC"/>
<path d="M101.468 14.66V8.302L101.446 3.286H103.25L103.03 7.51H103.338C103.499 6.46867 103.741 5.618 104.064 4.958C104.387 4.298 104.79 3.80667 105.274 3.484C105.773 3.16133 106.345 3 106.99 3C107.547 3 108.024 3.11 108.42 3.33C108.831 3.53533 109.161 3.836 109.41 4.232C109.674 4.628 109.865 5.10467 109.982 5.662C110.099 6.20467 110.151 6.81333 110.136 7.488H110.422C110.554 6.46133 110.789 5.618 111.126 4.958C111.463 4.28333 111.889 3.792 112.402 3.484C112.93 3.16133 113.524 3 114.184 3C114.844 3 115.394 3.13933 115.834 3.418C116.274 3.682 116.619 4.02667 116.868 4.452C117.132 4.87733 117.323 5.33933 117.44 5.838C117.572 6.322 117.653 6.79867 117.682 7.268C117.726 7.72267 117.748 8.11133 117.748 8.434V14.66H115.746V8.764C115.746 8.44133 115.731 8.06 115.702 7.62C115.673 7.16533 115.585 6.72533 115.438 6.3C115.306 5.87467 115.101 5.52267 114.822 5.244C114.543 4.96533 114.147 4.826 113.634 4.826C113.047 4.826 112.534 5.03867 112.094 5.464C111.669 5.87467 111.324 6.46133 111.06 7.224C110.796 7.972 110.642 8.852 110.598 9.864V14.66H108.618V8.962C108.618 8.654 108.603 8.26533 108.574 7.796C108.545 7.32667 108.464 6.872 108.332 6.432C108.215 5.97733 108.009 5.596 107.716 5.288C107.437 4.98 107.027 4.826 106.484 4.826C105.897 4.826 105.384 5.03867 104.944 5.464C104.519 5.88933 104.174 6.48333 103.91 7.246C103.661 8.00867 103.514 8.896 103.47 9.908V14.66H101.468Z" fill="#FCFCFC"/>
<path d="M120.128 14.66V8.302L120.106 3.286H121.91L121.69 7.51H121.998C122.159 6.46867 122.401 5.618 122.724 4.958C123.046 4.298 123.45 3.80667 123.934 3.484C124.432 3.16133 125.004 3 125.65 3C126.207 3 126.684 3.11 127.08 3.33C127.49 3.53533 127.82 3.836 128.07 4.232C128.334 4.628 128.524 5.10467 128.642 5.662C128.759 6.20467 128.81 6.81333 128.796 7.488H129.082C129.214 6.46133 129.448 5.618 129.786 4.958C130.123 4.28333 130.548 3.792 131.062 3.484C131.59 3.16133 132.184 3 132.844 3C133.504 3 134.054 3.13933 134.494 3.418C134.934 3.682 135.278 4.02667 135.528 4.452C135.792 4.87733 135.982 5.33933 136.1 5.838C136.232 6.322 136.312 6.79867 136.342 7.268C136.386 7.72267 136.408 8.11133 136.408 8.434V14.66H134.406V8.764C134.406 8.44133 134.391 8.06 134.362 7.62C134.332 7.16533 134.244 6.72533 134.098 6.3C133.966 5.87467 133.76 5.52267 133.482 5.244C133.203 4.96533 132.807 4.826 132.294 4.826C131.707 4.826 131.194 5.03867 130.754 5.464C130.328 5.87467 129.984 6.46133 129.72 7.224C129.456 7.972 129.302 8.852 129.258 9.864V14.66H127.278V8.962C127.278 8.654 127.263 8.26533 127.234 7.796C127.204 7.32667 127.124 6.872 126.992 6.432C126.874 5.97733 126.669 5.596 126.376 5.288C126.097 4.98 125.686 4.826 125.144 4.826C124.557 4.826 124.044 5.03867 123.604 5.464C123.178 5.88933 122.834 6.48333 122.57 7.246C122.32 8.00867 122.174 8.896 122.13 9.908V14.66H120.128Z" fill="#FCFCFC"/>
<path d="M143.759 14.946C142.85 14.946 142.05 14.8067 141.361 14.528C140.686 14.2493 140.114 13.8607 139.645 13.362C139.19 12.8487 138.846 12.24 138.611 11.536C138.376 10.8173 138.259 10.018 138.259 9.138C138.259 8.27267 138.376 7.466 138.611 6.718C138.846 5.97 139.183 5.31733 139.623 4.76C140.078 4.20267 140.635 3.77 141.295 3.462C141.955 3.154 142.71 3 143.561 3C144.338 3 145.035 3.132 145.651 3.396C146.267 3.66 146.788 4.04867 147.213 4.562C147.638 5.07533 147.954 5.71333 148.159 6.476C148.364 7.23867 148.438 8.126 148.379 9.138L139.513 9.226V7.862L147.081 7.774L146.487 8.654C146.546 7.80333 146.458 7.08467 146.223 6.498C146.003 5.91133 145.666 5.47133 145.211 5.178C144.756 4.87 144.206 4.716 143.561 4.716C142.872 4.716 142.278 4.892 141.779 5.244C141.28 5.596 140.892 6.102 140.613 6.762C140.349 7.422 140.217 8.19933 140.217 9.094C140.217 10.458 140.518 11.4993 141.119 12.218C141.735 12.9367 142.622 13.296 143.781 13.296C144.294 13.296 144.727 13.23 145.079 13.098C145.431 12.966 145.724 12.7827 145.959 12.548C146.194 12.3133 146.377 12.0567 146.509 11.778C146.641 11.4847 146.729 11.1913 146.773 10.898L148.599 11.206C148.496 11.778 148.32 12.2913 148.071 12.746C147.836 13.2007 147.514 13.5967 147.103 13.934C146.692 14.2567 146.208 14.506 145.651 14.682C145.094 14.858 144.463 14.946 143.759 14.946Z" fill="#FCFCFC"/>
</svg>
