<svg width="41" height="40" viewBox="0 0 41 40" fill="none" xmlns="http://www.w3.org/2000/svg">
<g clip-path="url(#clip0_87_1898)">
<path d="M20.6665 3.20312V10.1172C17.2688 10.1172 14.1931 11.4945 11.9657 13.7211L7.07666 8.83203C10.5548 5.35469 15.3595 3.20312 20.6665 3.20312Z" stroke="white" stroke-width="1.5625" stroke-miterlimit="10" stroke-linecap="round" stroke-linejoin="round"/>
<path d="M39.3258 17.8003C39.6913 19.2807 39.8852 20.8287 39.8852 22.4219H32.9711C32.9711 20.9828 32.7242 19.6008 32.2695 18.3172L34.3148 13.8937L29.4375 13.7922C29.4141 13.7687 29.3906 13.7453 29.3672 13.7219L34.2563 8.83203C35.0502 9.62617 35.775 10.4895 36.4209 11.4121" stroke="white" stroke-width="1.5625" stroke-miterlimit="10" stroke-linecap="round" stroke-linejoin="round"/>
<path d="M32.9712 22.4219C32.9712 20.983 32.7234 19.602 32.2695 18.3186L34.3148 13.8935L29.4363 13.792C27.2043 11.524 24.0999 10.1172 20.6665 10.1172C13.8708 10.1172 8.36182 15.6262 8.36182 22.4219C8.36182 26.2734 10.1319 29.7112 12.9024 31.9674C12.744 32.2111 12.6039 32.4675 12.4853 32.7319C12.2353 33.2884 11.9274 34.0675 11.9274 35.1073V36.7969H29.4056V35.1073C29.4056 34.249 29.0601 33.2963 28.7991 32.7318C28.6821 32.479 28.5434 32.2348 28.3862 32.0031C31.1821 29.7476 32.9712 26.2939 32.9712 22.4219Z" stroke="white" stroke-width="1.5625" stroke-miterlimit="10" stroke-linecap="round" stroke-linejoin="round"/>
<path d="M29.4055 35.1073V36.7969H11.9272V35.1073C11.9272 34.0674 12.2352 33.2883 12.4851 32.7318C13.1661 31.2156 14.5344 29.9503 16.2054 29.9503L18.1161 29.9609V29.9866C18.1009 31.3453 19.1969 32.4577 20.5602 32.4663H20.5761C21.9447 32.4663 23.0512 31.3526 23.036 29.9866L24.9466 29.9971C26.6176 29.9971 28.0961 31.2119 28.799 32.7317C29.06 33.2963 29.4055 34.249 29.4055 35.1073Z" stroke="white" stroke-width="1.5625" stroke-miterlimit="10" stroke-linecap="round" stroke-linejoin="round"/>
<path d="M23.0358 29.9867C23.051 31.3527 21.9445 32.4665 20.5759 32.4665H20.56C19.1967 32.4579 18.1007 31.3455 18.1159 29.9867L18.1271 28.4185C18.8976 28.9638 19.7328 29.2814 20.5759 29.2814C21.4196 29.2814 22.2542 28.9638 23.0253 28.4185L23.0358 29.9867Z" stroke="white" stroke-width="1.5625" stroke-miterlimit="10" stroke-linecap="round" stroke-linejoin="round"/>
<path d="M26.7838 20.6095C26.7838 24.8117 23.7408 29.2811 20.5762 29.2811C17.4116 29.2811 14.3687 24.8117 14.3687 20.6095C14.3687 16.4072 17.1479 13.2422 20.5762 13.2422C24.0046 13.2422 26.7838 16.4072 26.7838 20.6095Z" stroke="white" stroke-width="1.5625" stroke-miterlimit="10" stroke-linecap="round" stroke-linejoin="round"/>
<path d="M26.7838 20.6094V20.6127C24.0529 20.5844 21.7972 17.4944 21.7972 17.4944C19.3123 19.7019 15.2344 20.4672 14.4812 20.6095H14.3687C14.3687 16.4074 17.1479 13.2422 20.5762 13.2422C24.0046 13.2422 26.7838 16.4073 26.7838 20.6094Z" stroke="white" stroke-width="1.5625" stroke-miterlimit="10" stroke-linecap="round" stroke-linejoin="round"/>
<path d="M11.9657 13.7211C9.73916 15.9484 8.36182 19.0242 8.36182 22.4219H1.44775C1.44775 17.1148 3.59932 12.3102 7.07666 8.83203L11.9657 13.7211Z" stroke="white" stroke-width="1.5625" stroke-miterlimit="10" stroke-linecap="round" stroke-linejoin="round"/>
<path d="M34.2563 8.83203L29.3673 13.7219H29.3665C27.1399 11.4953 24.0634 10.1172 20.6665 10.1172V3.20312C25.9735 3.20312 30.7782 5.35469 34.2563 8.83203Z" stroke="white" stroke-width="1.5625" stroke-miterlimit="10" stroke-linecap="round" stroke-linejoin="round"/>
<path d="M21.9712 25.8972C21.9712 25.8972 21.3466 26.3607 20.5762 26.3607C19.8058 26.3607 19.1812 25.8972 19.1812 25.8972" stroke="white" stroke-width="1.5625" stroke-miterlimit="10" stroke-linecap="round" stroke-linejoin="round"/>
</g>
<defs>
<clipPath id="clip0_87_1898">
<rect width="40" height="40" fill="white" transform="translate(0.666504)"/>
</clipPath>
</defs>
</svg>
