<svg width="41" height="40" viewBox="0 0 41 40" fill="none" xmlns="http://www.w3.org/2000/svg">
<g clip-path="url(#clip0_87_1876)">
<path d="M20.3335 9.84375C19.9023 9.84375 19.5522 10.1938 19.5522 10.625C19.5522 11.0562 19.9023 11.4062 20.3335 11.4062C20.7647 11.4062 21.1147 11.0562 21.1147 10.625C21.1147 10.1938 20.7647 9.84375 20.3335 9.84375Z" fill="white"/>
<path d="M7.36475 23.9062C7.79596 23.9062 8.146 23.5562 8.146 23.125C8.146 22.6938 7.79596 22.3438 7.36475 22.3438C6.93353 22.3438 6.5835 22.6938 6.5835 23.125C6.5835 23.5562 6.93353 23.9062 7.36475 23.9062Z" fill="white"/>
<path d="M26.5835 2.03125C19.5501 2.03125 13.7774 6.88049 13.3309 12.9886C6.63263 13.3246 0.333496 18.1546 0.333496 24.6875C0.333496 27.4176 1.41382 30.0629 3.38037 32.1588C3.76947 33.7628 3.29706 35.463 2.12488 36.6351C1.90149 36.8585 1.83466 37.1945 1.95551 37.4866C2.07635 37.7783 2.36108 37.9688 2.67725 37.9688C4.90533 37.9688 7.05255 37.095 8.64801 35.5554C10.2023 36.0852 12.2302 36.4062 14.0835 36.4062C21.116 36.4062 26.8881 31.5582 27.3358 25.4514C28.9715 25.3787 30.6729 25.0766 32.019 24.6179C33.6144 26.1575 35.7617 27.0312 37.9897 27.0312C38.3059 27.0312 38.5906 26.8408 38.7115 26.5491C38.8323 26.257 38.7655 25.921 38.5421 25.6976C37.3699 24.5255 36.8975 22.8253 37.2866 21.2213C39.2532 19.1254 40.3335 16.4801 40.3335 13.75C40.3335 6.96198 33.5491 2.03125 26.5835 2.03125ZM14.0835 34.8438C12.2396 34.8438 10.1385 34.4818 8.73102 33.9218C8.4295 33.8016 8.08496 33.8806 7.86554 34.1202C6.92224 35.1514 5.69574 35.8704 4.35938 36.2009C5.09576 34.79 5.28375 33.1268 4.83575 31.5509C4.80035 31.4267 4.73474 31.3132 4.64471 31.2207C2.87225 29.3951 1.896 27.0749 1.896 24.6875C1.896 19.1821 7.47705 14.5312 14.0835 14.5312C20.3219 14.5312 25.8022 18.8693 25.8022 24.6875C25.8022 30.2878 20.5453 34.8438 14.0835 34.8438ZM36.0223 20.2832C35.9323 20.376 35.8666 20.4895 35.8312 20.6134C35.3832 22.1893 35.5712 23.8525 36.3076 25.2634C34.9713 24.9332 33.7448 24.2139 32.8015 23.1827C32.582 22.9434 32.2375 22.8641 31.936 22.9843C30.7162 23.4695 28.9761 23.8055 27.3333 23.8867C27.105 20.9323 25.6313 18.1555 23.1118 16.0938H33.3022C33.7338 16.0938 34.0835 15.744 34.0835 15.3125C34.0835 14.881 33.7338 14.5312 33.3022 14.5312H20.7116C18.9382 13.6285 16.947 13.1021 14.8974 12.9916C15.3463 7.74445 20.4162 3.59375 26.5835 3.59375C33.1899 3.59375 38.771 8.24463 38.771 13.75C38.771 16.1374 37.7947 18.4576 36.0223 20.2832Z" fill="white"/>
<path d="M20.3335 22.3438H10.4897C10.0582 22.3438 9.7085 22.6935 9.7085 23.125C9.7085 23.5565 10.0582 23.9062 10.4897 23.9062H20.3335C20.765 23.9062 21.1147 23.5565 21.1147 23.125C21.1147 22.6935 20.765 22.3438 20.3335 22.3438Z" fill="white"/>
<path d="M20.3335 27.0312H7.36475C6.93323 27.0312 6.5835 27.381 6.5835 27.8125C6.5835 28.244 6.93323 28.5938 7.36475 28.5938H20.3335C20.765 28.5938 21.1147 28.244 21.1147 27.8125C21.1147 27.381 20.765 27.0312 20.3335 27.0312Z" fill="white"/>
<path d="M33.3022 9.84375H23.4585C23.027 9.84375 22.6772 10.1935 22.6772 10.625C22.6772 11.0565 23.027 11.4062 23.4585 11.4062H33.3022C33.7338 11.4062 34.0835 11.0565 34.0835 10.625C34.0835 10.1935 33.7338 9.84375 33.3022 9.84375Z" fill="white"/>
</g>
<defs>
<clipPath id="clip0_87_1876">
<rect width="40" height="40" fill="white" transform="translate(0.333496)"/>
</clipPath>
</defs>
</svg>
